Blitz 2011 CAM XViD - IMAGiNE

+++++++++++++++++++++++++++++


Ripper ...........: IMAGiNE 
IMDB Rating.......:7.2/10
Video Codec.......: XVID
 Release Date......:26/06/11
Audio Codec.......:MP3 
Theatre Date......:20/05/11
Audio Bitrate.....:128
 Runtime.......:1h 32mn
Subtitles.........:NIL
 Language..........:ENGLISH
Resolution...... 640 x 240
 IMDb URL..........:http://www.imdb.com/title/tt1297919/

DETAILS:

Video

ID : 0
Format : MPEG-4 Visual
Format profile : Advanced Simple@L5
Format settings, BVOP : 2
Format settings, QPel : No
Format settings, GMC : No warppoints
Format settings, Matrix : Default (MPEG)
Muxing mode : Packed bitstream
Codec ID : XVID
Codec ID/Hint : XviD
Duration : 1h 32mn
Bit rate : 952 Kbps
Width : 640 pixels
Height : 240 pixels
Display aspect ratio : 2.667
Frame rate : 25.000 fps
Color space : YUV
Chroma subsampling : 4:2:0
Bit depth : 8 bits
Scan type : Progressive
Compression mode : Lossy
Bits/(Pixel*Frame) : 0.248
Stream size : 626 MiB (99%)
Writing library : XviD 61


Audio

Format : MPEG Audio
Format version : Version 1
Format profile : Layer 3
Mode : Joint stereo
Mode extension : MS Stereo
Duration : 1h 32mn
Bit rate mode : Constant
Bit rate : 128 Kbps
Channel(s) : 2 channels
Sampling rate : 44.1 KHz
Compression mode : Lossy
Stream size : 84.2 MiB (100%)
Writing library : LAME3.98r
Encoding settings : -m j -V 4 -q 2 -lowpass 17 -b 128

